<?xml version="1.0" standalone="no"?>
<!DOCTYPE svg PUBLIC "-//W3C//DTD SVG 20010904//EN"
 "http://www.w3.org/TR/2001/REC-SVG-20010904/DTD/svg10.dtd">
<svg version="1.0" xmlns="http://www.w3.org/2000/svg"
 width="283.000000pt" height="91.000000pt" viewBox="0 0 283.000000 91.000000"
 preserveAspectRatio="xMidYMid meet">
<metadata>
Created by potrace 1.10, written by Peter Selinger 2001-2011
</metadata>
<g transform="translate(0.000000,91.000000) scale(0.100000,-0.100000)"
fill="#000000" stroke="none">
<path d="M1363 721 c-69 -19 -89 -31 -51 -31 28 0 38 -16 38 -60 0 -27 -1 -27
-43 -23 -112 13 -195 -106 -167 -240 12 -58 43 -98 93 -116 31 -12 55 -4 95
32 l22 20 0 -20 c0 -19 7 -22 63 -25 71 -4 77 -3 53 15 -16 12 -17 35 -17 240
0 173 -2 227 -12 226 -6 -1 -40 -9 -74 -18z m46 -236 c1 -201 -16 -224 -21
-29 -3 170 0 231 13 199 4 -11 8 -87 8 -170z m-71 93 c8 -8 12 -53 12 -135 0
-122 0 -124 -25 -135 -30 -13 -52 1 -72 49 -16 38 -17 140 -3 180 18 47 61 68
88 41z m-119 -236 c20 -37 11 -48 -14 -19 -21 24 -25 38 -25 91 0 85 13 93 22
13 3 -36 11 -74 17 -85z"/>
<path d="M1528 729 c-12 -6 -18 -22 -18 -45 0 -27 5 -37 25 -46 51 -23 96 23
71 74 -13 25 -51 34 -78 17z"/>
<path d="M300 711 l25 -20 -3 -203 c-3 -188 -5 -204 -23 -218 -19 -15 -16 -16
36 -16 60 0 66 4 35 24 -19 11 -20 23 -20 188 0 162 8 205 24 138 10 -40 138
-344 145 -344 6 1 115 253 149 346 9 24 19 44 22 44 3 0 4 -82 1 -182 -3 -165
-5 -183 -23 -197 -18 -15 -12 -16 71 -16 50 0 91 2 91 5 0 3 -9 11 -20 18 -19
12 -20 23 -20 218 0 197 1 206 20 211 11 3 20 9 20 14 0 9 -131 0 -141 -10 -4
-3 -33 -70 -65 -148 -32 -78 -61 -139 -65 -135 -3 4 -32 71 -64 150 l-58 142
-47 0 c-26 0 -63 3 -81 6 l-34 6 25 -21z m166 -159 c29 -68 57 -129 63 -136
12 -14 5 -46 -9 -46 -4 0 -27 44 -50 98 -23 53 -53 119 -66 145 -28 58 -30 70
-7 65 11 -2 35 -46 69 -126z m284 -60 c0 -108 -4 -172 -9 -167 -5 6 -10 84
-11 175 -2 194 -3 183 10 175 6 -4 10 -76 10 -183z"/>
<path d="M903 589 c-50 -32 -76 -96 -71 -177 4 -82 31 -126 94 -153 33 -15 48
-17 71 -9 57 21 73 34 93 75 28 57 25 77 -5 38 -14 -17 -38 -34 -54 -38 -58
-12 -121 45 -121 110 l0 25 100 0 100 0 0 28 c0 37 -33 88 -69 107 -41 21
-100 19 -138 -6z m113 -34 c27 -66 22 -75 -46 -75 -65 0 -69 4 -50 57 23 61
74 71 96 18z"/>
<path d="M1560 594 c-19 -7 -45 -13 -57 -13 -28 -1 -29 -9 -5 -27 15 -11 17
-31 17 -152 l0 -141 65 -3 c36 -2 67 -2 69 -1 3 2 -5 10 -17 19 -21 14 -22 22
-22 175 0 87 -3 158 -7 158 -5 -1 -24 -7 -43 -15z m7 -221 c-2 -32 -3 -6 -3
57 0 63 1 89 3 58 2 -32 2 -84 0 -115z"/>
<path d="M1705 590 c-33 -10 -62 -19 -65 -20 -3 -1 5 -5 17 -10 20 -8 22 -16
25 -135 l3 -127 34 -30 c36 -33 65 -33 110 1 37 26 38 42 3 35 -45 -9 -52 14
-52 170 0 75 -3 135 -7 135 -5 -1 -35 -9 -68 -19z m35 -147 c0 -54 3 -109 6
-123 5 -24 5 -24 -10 -6 -12 15 -16 44 -16 123 0 62 4 103 10 103 6 0 10 -39
10 -97z"/>
<path d="M1910 595 c-19 -7 -46 -14 -59 -14 l-25 -1 22 -21 c21 -19 23 -28 21
-155 -1 -74 0 -136 2 -138 6 -6 129 -13 129 -8 0 3 -8 11 -17 18 -16 11 -18
32 -18 173 0 101 -4 161 -10 160 -5 0 -26 -7 -45 -14z m7 -227 c-2 -35 -3 -9
-3 57 0 66 1 94 3 63 2 -32 2 -86 0 -120z"/>
<path d="M2057 591 c-56 -16 -57 -17 -37 -34 19 -16 21 -28 19 -155 l-1 -137
58 -6 c33 -3 61 -4 63 -2 2 1 -3 11 -12 21 -14 15 -17 41 -17 140 0 120 0 122
26 139 26 16 27 16 45 -6 16 -20 19 -41 19 -157 l0 -134 49 0 c27 0 58 -3 68
-7 17 -6 17 -5 1 13 -14 16 -17 43 -19 152 -1 130 -1 132 -29 162 -37 39 -86
41 -129 4 l-31 -26 0 26 c0 14 -3 25 -7 25 -5 -1 -34 -9 -66 -18z m30 -213
c-2 -35 -3 -9 -3 57 0 66 1 94 3 63 2 -32 2 -86 0 -120z m182 49 c-2 -127 -6
-117 -11 25 -2 53 0 94 4 92 4 -3 7 -56 7 -117z"/>
<path d="M2346 589 c-33 -26 -34 -42 -1 -29 47 18 55 -5 55 -161 l0 -139 48 0
c26 0 57 -3 70 -6 27 -8 30 12 3 21 -18 5 -20 18 -23 146 -3 140 -3 141 -31
165 -35 30 -85 31 -121 3z m113 -171 c1 -48 -3 -90 -9 -93 -7 -4 -10 33 -9
107 1 132 17 120 18 -14z"/>
</g>
</svg>
