<?xml version="1.0" standalone="no"?>
<!DOCTYPE svg PUBLIC "-//W3C//DTD SVG 20010904//EN"
 "http://www.w3.org/TR/2001/REC-SVG-20010904/DTD/svg10.dtd">
<svg version="1.0" xmlns="http://www.w3.org/2000/svg"
 width="219.000000pt" height="234.000000pt" viewBox="0 0 219.000000 234.000000"
 preserveAspectRatio="xMidYMid meet">
<metadata>
Created by potrace 1.10, written by Peter Selinger 2001-2011
</metadata>
<g transform="translate(0.000000,234.000000) scale(0.100000,-0.100000)"
fill="#000000" stroke="none">
<path d="M477 1311 c-52 -8 -51 -25 3 -32 51 -7 70 -3 70 16 0 10 -27 29 -33
24 -1 -1 -19 -5 -40 -8z"/>
<path d="M905 1312 c-35 -7 -40 -21 -12 -31 28 -11 84 -5 92 10 12 18 -34 30
-80 21z"/>
<path d="M1380 1313 c-8 -2 -22 -7 -30 -10 -10 -3 -4 -9 18 -18 34 -15 95 -3
76 14 -13 13 -47 20 -64 14z"/>
<path d="M545 1271 c-8 -14 2 -31 20 -31 17 0 30 -77 21 -122 -3 -17 -15 -38
-27 -46 -26 -18 -13 -32 24 -25 29 6 32 15 28 85 -2 31 1 37 21 41 l23 4 -22
8 c-19 6 -23 15 -23 46 0 27 -4 39 -14 39 -8 0 -21 3 -29 6 -8 3 -18 1 -22 -5z"/>
<path d="M827 1267 c-6 -16 3 -67 12 -67 3 0 13 13 22 29 12 21 14 32 6 40
-15 15 -34 14 -40 -2z"/>
<path d="M1015 1272 c-24 -5 -45 -22 -27 -22 6 0 25 -14 43 -31 25 -24 30 -36
26 -59 -7 -35 14 -58 32 -36 8 10 10 30 6 60 -6 36 -11 46 -26 46 -11 0 -16 5
-13 13 7 18 -16 34 -41 29z"/>
<path d="M1294 1273 c-24 -4 -38 -49 -27 -80 6 -16 5 -16 -10 -4 -21 17 -22
15 -30 -26 -6 -33 -2 -38 31 -34 8 1 12 -12 12 -39 l0 -40 41 0 c24 0 38 4 34
10 -3 6 -13 10 -20 10 -8 0 -21 15 -29 34 -8 18 -19 37 -25 40 -15 9 -14 27 1
24 6 -2 15 13 20 34 6 23 17 38 30 41 11 3 18 11 16 18 -5 15 -15 18 -44 12z"/>
<path d="M1452 1271 l-24 -6 27 -23 c30 -26 33 -26 37 8 3 26 -6 31 -40 21z"/>
<path d="M375 1258 c-11 -6 -22 -15 -25 -19 -4 -6 -5 -57 -1 -131 1 -10 9 -18
19 -18 13 0 18 -7 18 -22 -1 -17 5 -24 22 -26 12 -2 22 -10 22 -18 0 -19 40
-27 81 -16 l34 10 -35 13 c-19 7 -38 12 -42 11 -11 -3 -53 40 -61 61 -4 10
-11 15 -17 12 -6 -4 -10 13 -10 44 0 31 4 51 11 51 8 0 7 5 -1 15 -11 13 -10
14 4 9 9 -3 16 -1 16 5 0 6 7 11 16 11 8 0 12 5 9 10 -8 13 -35 12 -60 -2z"/>
<path d="M1507 1204 c-3 -10 -7 -41 -9 -69 -3 -45 -6 -51 -33 -61 -16 -7 -29
-17 -27 -24 2 -8 -11 -11 -40 -10 -60 4 -68 2 -68 -15 0 -19 41 -29 85 -21 24
5 35 12 35 24 0 11 9 17 25 18 39 3 57 29 60 89 2 59 -17 107 -28 69z"/>
<path d="M791 1196 c-16 -19 -4 -106 14 -106 8 0 15 -10 17 -22 2 -18 9 -22
27 -20 14 1 27 4 29 6 7 8 -41 55 -51 49 -6 -4 -8 11 -5 40 6 52 -10 79 -31
53z"/>
<path d="M1015 1082 c-11 -15 -19 -31 -17 -36 2 -5 -17 -6 -42 -4 -46 6 -75
-9 -61 -32 13 -20 115 -6 115 16 0 8 9 14 19 14 25 0 30 9 24 43 -7 34 -13 34
-38 -1z"/>
</g>
</svg>
