 <svg version="1.0" xmlns="http://www.w3.org/2000/svg"  width="77.000000pt" height="65.000000pt" viewBox="0 0 77.000000 65.000000"  preserveAspectRatio="xMidYMid meet">  <g transform="translate(0.000000,65.000000) scale(0.100000,-0.100000)" fill="#808080" stroke="none"> <path d="M280 523 c-50 -26 -80 -76 -80 -132 0 -28 -8 -59 -20 -79 -11 -18 -20 -50 -20 -72 l0 -40 51 0 c44 0 55 -4 79 -30 15 -16 38 -30 50 -30 12 0 35 14 50 30 24 26 35 30 79 30 l51 0 0 40 c0 22 -9 54 -20 72 -12 20 -20 51 -20 78 0 109 -108 180 -200 133z m115 -19 c39 -18 65 -66 65 -121 0 -21 9 -53 20 -71 11 -18 20 -46 20 -62 l0 -30 -160 0 -160 0 0 30 c0 16 9 44 20 62 12 20 20 51 20 76 0 54 24 96 64 116 40 20 70 20 111 0z m-11 -319 c-3 -8 -14 -17 -25 -20 -25 -8 -56 2 -63 20 -4 12 5 15 44 15 39 0 48 -3 44 -15z"/> </g> </svg> 