<?xml version="1.0" standalone="no"?>
<!DOCTYPE svg PUBLIC "-//W3C//DTD SVG 20010904//EN"
 "http://www.w3.org/TR/2001/REC-SVG-20010904/DTD/svg10.dtd">
<svg version="1.0" xmlns="http://www.w3.org/2000/svg"
 width="300.000000pt" height="242.000000pt" viewBox="0 0 300.000000 242.000000"
 preserveAspectRatio="xMidYMid meet">
<metadata>
Created by potrace 1.10, written by Peter Selinger 2001-2011
</metadata>
<g transform="translate(0.000000,242.000000) scale(0.100000,-0.100000)"
fill="#000000" stroke="none">
<path d="M1346 2025 c-3 -9 -18 -15 -35 -15 -36 0 -132 -36 -146 -54 -6 -7
-20 -16 -33 -20 -12 -4 -22 -12 -22 -17 0 -5 -9 -9 -19 -9 -11 0 -22 -8 -25
-18 -3 -9 -16 -22 -28 -27 -12 -6 -26 -19 -32 -30 -6 -11 -19 -26 -28 -33 -10
-7 -18 -20 -18 -28 0 -8 -7 -14 -15 -14 -8 0 -15 -8 -15 -18 0 -10 -9 -25 -20
-35 -11 -10 -20 -29 -20 -46 0 -16 -6 -31 -15 -35 -9 -3 -15 -18 -15 -35 0
-16 -5 -33 -10 -36 -7 -4 -7 -12 0 -25 7 -14 6 -23 -5 -34 -22 -21 -22 -231 0
-240 10 -3 15 -19 15 -44 0 -21 7 -47 15 -58 8 -10 15 -29 15 -41 0 -12 9 -27
20 -33 11 -6 20 -21 20 -34 0 -13 7 -26 15 -30 8 -3 15 -12 15 -21 0 -8 7 -15
15 -15 8 0 15 -5 15 -10 0 -15 91 -100 107 -100 7 0 13 -5 13 -10 0 -6 11 -15
25 -20 14 -5 25 -14 25 -20 0 -5 8 -10 19 -10 10 0 30 -9 44 -20 16 -13 40
-20 66 -20 25 0 44 -5 47 -13 3 -9 40 -13 138 -15 112 -2 135 0 140 13 3 10
19 15 43 15 21 0 51 9 68 20 17 11 37 20 46 20 9 0 19 7 23 15 3 8 15 15 26
15 11 0 23 7 26 15 4 8 13 15 20 15 8 0 17 7 20 15 3 8 21 24 40 36 19 11 34
27 34 35 0 8 5 14 10 14 6 0 16 11 22 25 6 14 17 25 25 25 7 0 13 11 13 24 0
13 6 26 14 29 8 3 17 19 21 35 3 17 13 33 21 36 9 3 14 20 14 49 0 28 6 49 15
57 13 11 15 36 13 141 -1 94 -6 130 -15 133 -7 3 -13 20 -13 39 0 18 -9 50
-20 72 -11 22 -20 45 -20 52 0 7 -4 13 -9 13 -5 0 -19 20 -31 45 -12 25 -31
50 -41 56 -10 5 -19 16 -19 24 0 8 -12 22 -27 32 -16 10 -34 26 -41 35 -7 10
-19 18 -26 18 -8 0 -16 7 -20 15 -3 8 -12 15 -21 15 -8 0 -24 9 -35 20 -11 11
-29 20 -39 20 -10 0 -21 7 -25 15 -3 10 -19 15 -45 15 -22 0 -46 6 -53 14 -21
20 -274 22 -282 1z m300 -60 c4 -8 14 -15 24 -15 11 0 22 -5 25 -10 5 -8 12
-7 22 2 13 10 19 8 39 -17 13 -17 24 -33 24 -37 0 -5 13 -8 28 -8 22 0 39 -13
78 -57 27 -31 64 -72 81 -92 18 -20 33 -44 33 -54 0 -9 9 -25 20 -34 14 -13
20 -30 20 -61 0 -29 5 -44 15 -48 12 -5 15 -29 15 -129 0 -90 -3 -125 -12
-128 -10 -4 -10 -7 0 -18 16 -17 15 -39 -2 -39 -14 0 -31 -63 -22 -79 3 -5
-10 -21 -29 -35 -19 -15 -35 -36 -35 -47 0 -21 -105 -129 -126 -129 -8 0 -14
-6 -14 -14 0 -8 -9 -18 -20 -21 -11 -3 -20 -11 -20 -16 0 -5 -9 -9 -20 -9 -11
0 -28 -9 -37 -20 -13 -14 -30 -20 -61 -20 -29 0 -44 -5 -48 -15 -9 -22 -314
-21 -314 1 0 8 -11 15 -27 16 -16 1 -35 2 -43 4 -8 1 -20 2 -25 3 -6 1 -19 15
-28 31 -14 23 -25 30 -48 30 -21 0 -32 7 -40 23 -6 13 -24 32 -40 41 -18 11
-32 29 -36 47 -3 16 -11 29 -17 29 -18 0 -43 34 -51 68 -3 17 -13 33 -21 36
-9 4 -14 21 -14 51 0 32 -5 47 -15 51 -13 5 -15 31 -14 160 0 119 4 154 14
154 15 0 26 48 18 79 -3 11 -1 21 4 21 19 0 63 46 63 65 0 30 170 185 203 185
9 0 25 9 34 20 12 14 30 20 59 20 28 0 44 5 48 15 4 12 31 15 156 15 125 0
152 -3 156 -15z"/>
<path d="M1175 1410 c-3 -5 -1 -10 5 -10 6 0 14 -9 18 -21 8 -20 13 -21 297
-19 159 0 292 3 295 6 2 3 -3 10 -13 15 -9 6 -17 17 -17 24 0 13 -43 15 -289
15 -183 0 -292 -4 -296 -10z"/>
</g>
</svg>
