<?xml version="1.0" standalone="no"?>
<!DOCTYPE svg PUBLIC "-//W3C//DTD SVG 20010904//EN"
 "http://www.w3.org/TR/2001/REC-SVG-20010904/DTD/svg10.dtd">
<svg version="1.0" xmlns="http://www.w3.org/2000/svg"
 width="300.000000pt" height="298.000000pt" viewBox="0 0 300.000000 298.000000"
 preserveAspectRatio="xMidYMid meet">
<metadata>
Created by potrace 1.10, written by Peter Selinger 2001-2011
</metadata>
<g transform="translate(0.000000,298.000000) scale(0.100000,-0.100000)"
fill="#000000" stroke="none">
<path d="M1810 2326 c0 -103 5 -126 26 -126 8 0 14 -9 14 -20 0 -24 -15 -26
-28 -5 -6 11 -33 19 -88 24 -43 5 -87 12 -96 16 -21 8 -46 -31 -29 -48 11 -11
109 -12 171 -2 l36 6 -4 -103 c-4 -102 -3 -103 22 -114 14 -7 27 -9 31 -6 3 3
5 53 5 112 l0 107 78 -5 c42 -2 85 -9 94 -13 13 -7 20 -4 29 12 22 41 -9 49
-133 36 l-68 -7 0 103 c0 101 -1 104 -25 115 -14 7 -28 12 -30 12 -3 0 -5 -42
-5 -94z"/>
<path d="M1086 2190 c-17 -8 -40 -34 -53 -57 l-23 -42 2 -483 3 -483 25 3 c14
2 34 12 46 23 11 10 25 19 31 19 6 0 13 7 17 15 3 8 12 15 19 15 8 0 35 22 61
50 26 28 54 50 63 50 9 0 23 7 32 15 114 108 109 104 143 95 29 -9 100 -66
121 -97 4 -7 13 -13 19 -13 6 0 30 -16 54 -35 23 -19 45 -35 48 -35 2 0 20
-13 38 -30 18 -16 37 -30 43 -30 6 0 16 -9 23 -20 12 -19 37 -25 64 -15 10 4
12 61 10 298 -3 288 -3 292 -25 309 -12 10 -26 18 -30 18 -5 0 -8 -118 -7
-262 1 -145 1 -271 1 -280 -1 -29 -28 -20 -40 12 -5 17 -16 30 -24 30 -7 0
-30 16 -51 35 -21 19 -45 35 -52 35 -8 0 -14 7 -14 15 0 8 -6 15 -13 15 -8 0
-22 9 -32 20 -10 11 -24 20 -32 20 -7 0 -13 4 -13 10 0 13 -82 66 -100 64 -32
-3 -60 -17 -60 -30 0 -8 -9 -14 -19 -14 -11 0 -39 -22 -63 -50 -25 -29 -51
-50 -63 -50 -12 0 -43 -24 -74 -56 -35 -37 -59 -54 -73 -52 -19 3 -19 13 -18
448 l1 445 25 24 c25 23 29 23 166 19 113 -4 141 -2 145 9 10 27 -12 32 -152
35 -110 2 -146 0 -169 -12z"/>
</g>
</svg>
