 <svg version="1.0" xmlns="http://www.w3.org/2000/svg"  width="246.000000pt" height="239.000000pt" viewBox="0 0 246.000000 239.000000"  preserveAspectRatio="xMidYMid meet">  <g transform="translate(0.000000,239.000000) scale(0.050000,-0.050000)" fill="#808080" stroke="none"> <path d="M2962 3357 c-524 -519 -1025 -1016 -1114 -1105 l-163 -162 -97 -294 -97 -295 42 -55 c61 -83 139 -80 431 18 l253 86 1112 1105 c1009 1003 1111 1110 1111 1169 0 90 -380 476 -469 476 -49 0 -200 -141 -1009 -943z m1087 284 l-179 -180 -132 131 -132 131 182 178 182 177 129 -128 129 -128 -179 -181z m-444 -190 l115 -125 -799 -796 -799 -796 -183 -69 c-222 -83 -217 -87 -144 129 l59 176 798 801 c439 441 807 802 818 803 11 1 72 -55 135 -123z"/> <path d="M675 3998 c-97 -56 -95 -25 -95 -1779 l0 -1642 58 -59 59 -58 1673 0 1673 0 59 58 58 59 0 1062 0 1062 -49 22 c-40 18 -60 16 -101 -11 l-51 -33 1 -1015 c1 -558 -3 -1012 -9 -1009 -6 3 -722 5 -1591 5 l-1580 0 0 1580 0 1580 1010 0 c983 0 1011 1 1050 40 50 50 51 84 3 127 -43 39 -2101 50 -2168 11z"/> </g> </svg> 